
<svg xmlns="http://www.w3.org/2000/svg" xmlns:xlink="http://www.w3.org/1999/xlink" width="42" height="24.4" viewBox="0 0 42 24.4"><defs><style>.a,.b{fill:none;}.a{clip-rule:evenodd;}.c{clip-path:url(#a);}.d{clip-path:url(#b);}.e{fill:#4ee3b9;}.f{clip-path:url(#c);}.g{clip-path:url(#d);}.h{fill:url(#e);}.i{clip-path:url(#f);}.j{fill:#017dff;}.k{clip-path:url(#h);}.l{clip-path:url(#j);}.m{clip-path:url(#l);}</style><clipPath id="a"><path class="a" d="M77.353-205.757a73.368,73.368,0,0,1,7.771.354,4.931,4.931,0,0,1-4.734,1.688,4.95,4.95,0,0,1-.715-.2,4.93,4.93,0,0,1-2.411-1.845Zm1.819-11.518a3.791,3.791,0,0,1,4.295-2.451,3.807,3.807,0,0,1,3.078,3.882h0l-.194,5.083a60.748,60.748,0,0,0-9.485-.029Z" transform="translate(-76.865 219.796)"/></clipPath><clipPath id="b"><path class="b" d="M-49-263.341H3.8V-306H-49Z" transform="translate(49 306)"/></clipPath><clipPath id="c"><path class="a" d="M47.128-121.79c.333-2.358-8.689-6.042-20.282-7.3s-21.367.383-21.7,2.741,8.8,5.291,20.388,6.55S46.795-119.432,47.128-121.79Zm-3.9.35c-.211,1.523-8.495,2.58-17.68,1.546S8.285-123.906,8.5-125.429s8.7-1.525,17.886-.491S43.16-122.921,43.227-121.441Z" transform="translate(-5.137 129.528)"/></clipPath><clipPath id="d"><path class="b" d="M-49-263.341H5.336V-306H-49Z" transform="translate(49 306)"/></clipPath><linearGradient id="e" x1="0.314" y1="0.518" x2="0.801" y2="0.226" gradientUnits="objectBoundingBox"><stop offset="0" stop-color="#44e2b6"/><stop offset="0.1" stop-color="#3dd8bd"/><stop offset="0.2" stop-color="#36cec4"/><stop offset="0.3" stop-color="#30c4cc"/><stop offset="0.4" stop-color="#29bad3"/><stop offset="0.5" stop-color="#23b0da"/><stop offset="0.6" stop-color="#1ca5e2"/><stop offset="0.7" stop-color="#169be9"/><stop offset="0.8" stop-color="#0f91f0"/><stop offset="0.9" stop-color="#0987f8"/><stop offset="1" stop-color="#027dff"/></linearGradient><clipPath id="f"><path class="a" d="M212-213.893a3.1,3.1,0,0,0,2.515-3.592A3.1,3.1,0,0,0,210.924-220a3.1,3.1,0,0,0-2.515,3.592A3.1,3.1,0,0,0,212-213.893Z" transform="translate(-208.361 220.048)"/></clipPath><clipPath id="h"><path class="a" d="M77.279-61.171a3.1,3.1,0,0,1,2.515,3.592A3.1,3.1,0,0,1,76.2-55.064a3.1,3.1,0,0,1-2.515-3.592A3.1,3.1,0,0,1,77.279-61.171Z" transform="translate(-73.639 61.219)"/></clipPath><clipPath id="j"><path class="a" d="M276.455-38.24l-.052,0c-.823.037-1.69.056-2.6.057.96-.064,1.855-.156,2.667-.27Q276.467-38.345,276.455-38.24Z" transform="translate(-273.807 38.451)"/></clipPath><clipPath id="l"><path class="a" d="M213-145.28a69.984,69.984,0,0,1,8.913,1.733l.4.113.058,2.82a3.8,3.8,0,0,1-3.135,3.817A3.774,3.774,0,0,1,215-139.313Zm9.126-3.676,0,.014a64.858,64.858,0,0,0-8.9-1.845,4.922,4.922,0,0,1,2.507-1.892,4.947,4.947,0,0,1,.71-.181A4.914,4.914,0,0,1,222.123-148.956Z" transform="translate(-212.997 152.935)"/></clipPath></defs><g transform="translate(-5.137 220.048)"><g class="c" transform="translate(13.345 -220.02)"><g class="d" transform="translate(-13.874 -9.502)"><path class="e" d="M70.958-225.793l10.691.187-.3,17.3L70.656-208.5Z" transform="translate(-57.467 234.635)"/></g></g><g class="f" transform="translate(5.137 -209.38)"><g class="g" transform="translate(-6.141 -19.453)"><g transform="translate(47.585 38.236) rotate(-173)"><path class="h" d="M44.669,23.6,2.9,28.728-.018,4.986,41.754-.143Z" transform="translate(0 0)"/></g></g></g><g class="i" transform="translate(28.306 -220.048)"><g class="d" transform="translate(-28.369 -9.475)"><path class="j" d="M198.116-229.024l7.193-1.268,1.268,7.193-7.193,1.268Z" transform="translate(-170.876 238.638)"/></g></g><g class="k" transform="translate(12.947 -201.85)"><g class="d" transform="translate(-13.519 -26.982)"><path class="e" d="M63.395-64.271,70.587-63,71.856-70.2l-7.193-1.268Z" transform="translate(-51.005 97.317)"/></g></g><g class="l" transform="translate(35.674 -199.34)"><g class="d" transform="translate(-35.583 -29.492)"><path class="j" d="M268.807-43.451h3.769v1.372h-3.769Z" transform="translate(-233.775 72.392)"/></g></g><g class="m" transform="translate(28.914 -211.96)"><g class="d" transform="translate(-28.88 -16.872)"><path class="j" d="M208-157.935h10.472v17.3H208Z" transform="translate(-179.668 174.256)"/></g></g></g></svg>